<svg width="1280" height="720" xmlns="http://www.w3.org/2000/svg" font-family="system-ui,-apple-system,sans-serif">
  <defs>
    <linearGradient id="bg3" x1="0%" y1="0%" x2="100%" y2="100%">
      <stop offset="0%" style="stop-color:#0f0f1a"/>
      <stop offset="100%" style="stop-color:#1a1a2e"/>
    </linearGradient>
    <linearGradient id="rowHover" x1="0%" y1="0%" x2="0%" y2="100%">
      <stop offset="0%" style="stop-color:#FF6B35;stop-opacity:0.12"/>
      <stop offset="100%" style="stop-color:#FF6B35;stop-opacity:0.06"/>
    </linearGradient>
    <filter id="s3" x="-10%" y="-10%" width="120%" height="120%">
      <feDropShadow dx="0" dy="4" stdDeviation="16" flood-color="#000000" flood-opacity="0.4"/>
    </filter>
  </defs>

  <rect width="1280" height="720" fill="url(#bg3)"/>
  <circle cx="1200" cy="100" r="300" fill="#FF6B35" opacity="0.04"/>
  <circle cx="80" cy="650" r="200" fill="#34C759" opacity="0.04"/>

  <!-- Main dashboard card -->
  <g filter="url(#s3)">
    <rect x="80" y="60" width="1120" height="600" rx="20" fill="#16161f" stroke="#ffffff" stroke-width="0.5" stroke-opacity="0.1"/>

    <!-- Sidebar -->
    <rect x="80" y="60" width="220" height="600" rx="20" fill="#1a1a28"/>
    <rect x="280" y="60" width="4" rx="0" height="600" fill="#ffffff" fill-opacity="0.06"/>
    <!-- Sidebar header -->
    <text x="170" y="108" fill="white" font-size="14" font-weight="bold" text-anchor="middle">🤖 Shopping Bot</text>
    <text x="170" y="124" fill="#FF6B35" font-size="10" text-anchor="middle">v1.0.0</text>
    <!-- Sidebar items -->
    <rect x="96" y="144" width="188" height="36" rx="10" fill="#FF6B35" fill-opacity="0.15"/>
    <rect x="104" y="154" width="4" height="16" rx="2" fill="#FF6B35"/>
    <text x="120" y="167" fill="#FF6B35" font-size="12" font-weight="600">📋  Schedule</text>

    <rect x="96" y="190" width="188" height="36" rx="10" fill="transparent"/>
    <text x="120" y="213" fill="#ffffff" fill-opacity="0.6" font-size="12">📜  History</text>

    <rect x="96" y="236" width="188" height="36" rx="10" fill="transparent"/>
    <text x="120" y="259" fill="#ffffff" fill-opacity="0.6" font-size="12">🔑  Devices</text>

    <rect x="96" y="282" width="188" height="36" rx="10" fill="transparent"/>
    <text x="120" y="305" fill="#ffffff" fill-opacity="0.6" font-size="12">⚙️  Settings</text>

    <!-- User info at bottom -->
    <rect x="96" y="560" width="188" height="60" rx="12" fill="#ffffff" fill-opacity="0.04" stroke="#ffffff" stroke-width="0.5" stroke-opacity="0.1"/>
    <circle cx="120" cy="590" r="14" fill="#FF6B35"/>
    <text x="120" y="595" fill="white" font-size="10" text-anchor="middle">P</text>
    <text x="142" y="586" fill="white" font-size="11" font-weight="600">puttpoom</text>
    <text x="142" y="602" fill="#ffffff" fill-opacity="0.5" font-size="10">2 devices verified</text>

    <!-- Main content -->
    <!-- Header row -->
    <text x="320" y="100" fill="white" font-size="18" font-weight="bold">Scheduled Purchases</text>
    <text x="320" y="118" fill="#ffffff" fill-opacity="0.5" font-size="12">3 active · 1 pending</text>

    <!-- Add button -->
    <rect x="1040" y="74" width="140" height="36" rx="10" fill="#FF6B35"/>
    <text x="1110" y="97" fill="white" font-size="13" font-weight="600" text-anchor="middle">+ New Schedule</text>

    <!-- Table header -->
    <rect x="300" y="136" width="880" height="36" rx="8" fill="#ffffff" fill-opacity="0.04"/>
    <text x="322" y="158" fill="#ffffff" fill-opacity="0.5" font-size="11" font-weight="600">PRODUCT</text>
    <text x="582" y="158" fill="#ffffff" fill-opacity="0.5" font-size="11" font-weight="600">SCHEDULE</text>
    <text x="740" y="158" fill="#ffffff" fill-opacity="0.5" font-size="11" font-weight="600">MAX PRICE</text>
    <text x="860" y="158" fill="#ffffff" fill-opacity="0.5" font-size="11" font-weight="600">STATUS</text>
    <text x="990" y="158" fill="#ffffff" fill-opacity="0.5" font-size="11" font-weight="600">ACTION</text>

    <!-- Row 1 — Success -->
    <rect x="300" y="172" width="880" height="56" rx="8" fill="#34C759" fill-opacity="0.06"/>
    <rect x="300" y="172" width="4" height="56" rx="2" fill="#34C759"/>
    <text x="322" y="197" fill="white" font-size="12" font-weight="600">iPhone 15 Pro Case</text>
    <text x="322" y="214" fill="#ffffff" fill-opacity="0.5" font-size="10">lazada.co.th/products/iphone-15-pro-case</text>
    <text x="582" y="197" fill="white" font-size="12">2024-12-12  00:00:01</text>
    <text x="582" y="214" fill="#ffffff" fill-opacity="0.5" font-size="10">Qty: 2</text>
    <text x="740" y="200" fill="white" font-size="13" font-weight="600">฿ 1,200</text>
    <rect x="860" y="183" width="72" height="22" rx="11" fill="#34C759" fill-opacity="0.2"/>
    <circle cx="874" cy="194" r="4" fill="#34C759"/>
    <text x="898" y="198" fill="#34C759" font-size="11" font-weight="600">Success</text>
    <text x="990" y="200" fill="#ffffff" fill-opacity="0.4" font-size="11">View</text>

    <!-- Row 2 — Pending -->
    <rect x="300" y="236" width="880" height="56" rx="8" fill="url(#rowHover)"/>
    <rect x="300" y="236" width="4" height="56" rx="2" fill="#FF6B35"/>
    <text x="322" y="261" fill="white" font-size="12" font-weight="600">Nike Air Max 90 — White</text>
    <text x="322" y="278" fill="#ffffff" fill-opacity="0.5" font-size="10">lazada.co.th/products/nike-air-max-90</text>
    <text x="582" y="261" fill="white" font-size="12">2024-12-25  08:00:00</text>
    <text x="582" y="278" fill="#ffffff" fill-opacity="0.5" font-size="10">Qty: 1</text>
    <text x="740" y="264" fill="white" font-size="13" font-weight="600">฿ 3,500</text>
    <rect x="860" y="247" width="72" height="22" rx="11" fill="#FF9500" fill-opacity="0.2"/>
    <circle cx="874" cy="258" r="4" fill="#FF9500"/>
    <text x="898" y="262" fill="#FF9500" font-size="11" font-weight="600">Pending</text>
    <text x="990" y="264" fill="#ffffff" fill-opacity="0.4" font-size="11">Edit · Cancel</text>

    <!-- Row 3 — Active -->
    <rect x="300" y="300" width="880" height="56" rx="8" fill="#007AFF" fill-opacity="0.06"/>
    <rect x="300" y="300" width="4" height="56" rx="2" fill="#007AFF"/>
    <text x="322" y="325" fill="white" font-size="12" font-weight="600">Sony WH-1000XM5 Headphones</text>
    <text x="322" y="342" fill="#ffffff" fill-opacity="0.5" font-size="10">lazada.co.th/products/sony-wh1000xm5</text>
    <text x="582" y="325" fill="white" font-size="12">2024-12-31  10:00:00</text>
    <text x="582" y="342" fill="#ffffff" fill-opacity="0.5" font-size="10">Qty: 1</text>
    <text x="740" y="328" fill="white" font-size="13" font-weight="600">฿ 9,900</text>
    <rect x="860" y="311" width="72" height="22" rx="11" fill="#007AFF" fill-opacity="0.2"/>
    <circle cx="874" cy="322" r="4" fill="#007AFF"/>
    <text x="898" y="326" fill="#007AFF" font-size="11" font-weight="600">Active</text>
    <text x="990" y="328" fill="#ffffff" fill-opacity="0.4" font-size="11">Edit · Cancel</text>

    <!-- Row 4 — Failed -->
    <rect x="300" y="364" width="880" height="56" rx="8" fill="#FF3B30" fill-opacity="0.05"/>
    <rect x="300" y="364" width="4" height="56" rx="2" fill="#FF3B30"/>
    <text x="322" y="389" fill="white" font-size="12" font-weight="600">AirPods Pro 2nd Gen</text>
    <text x="322" y="406" fill="#ffffff" fill-opacity="0.5" font-size="10">lazada.co.th/products/airpods-pro-2</text>
    <text x="582" y="389" fill="white" font-size="12">2024-12-10  09:00:00</text>
    <text x="582" y="406" fill="#ffffff" fill-opacity="0.5" font-size="10">Qty: 1</text>
    <text x="740" y="392" fill="white" font-size="13" font-weight="600">฿ 7,990</text>
    <rect x="860" y="375" width="60" height="22" rx="11" fill="#FF3B30" fill-opacity="0.2"/>
    <circle cx="874" cy="386" r="4" fill="#FF3B30"/>
    <text x="895" y="390" fill="#FF3B30" font-size="11" font-weight="600">Failed</text>
    <text x="990" y="392" fill="#ffffff" fill-opacity="0.4" font-size="11">Retry</text>

    <!-- Stat cards -->
    <rect x="300" y="450" width="195" height="90" rx="12" fill="#ffffff" fill-opacity="0.04" stroke="#ffffff" stroke-width="0.5" stroke-opacity="0.08"/>
    <text x="320" y="476" fill="#ffffff" fill-opacity="0.5" font-size="10">TOTAL ORDERS</text>
    <text x="320" y="504" fill="white" font-size="28" font-weight="bold">24</text>
    <text x="320" y="524" fill="#34C759" font-size="11">+3 this week</text>

    <rect x="510" y="450" width="195" height="90" rx="12" fill="#ffffff" fill-opacity="0.04" stroke="#ffffff" stroke-width="0.5" stroke-opacity="0.08"/>
    <text x="530" y="476" fill="#ffffff" fill-opacity="0.5" font-size="10">TOTAL SAVED (฿)</text>
    <text x="530" y="504" fill="white" font-size="28" font-weight="bold">4,320</text>
    <text x="530" y="524" fill="#34C759" font-size="11">vs manual buying</text>

    <rect x="720" y="450" width="195" height="90" rx="12" fill="#ffffff" fill-opacity="0.04" stroke="#ffffff" stroke-width="0.5" stroke-opacity="0.08"/>
    <text x="740" y="476" fill="#ffffff" fill-opacity="0.5" font-size="10">SUCCESS RATE</text>
    <text x="740" y="504" fill="white" font-size="28" font-weight="bold">91%</text>
    <text x="740" y="524" fill="#FF9500" font-size="11">22 / 24 orders</text>

    <rect x="930" y="450" width="250" height="90" rx="12" fill="#ffffff" fill-opacity="0.04" stroke="#ffffff" stroke-width="0.5" stroke-opacity="0.08"/>
    <text x="950" y="476" fill="#ffffff" fill-opacity="0.5" font-size="10">DEVICES VERIFIED</text>
    <text x="950" y="504" fill="white" font-size="28" font-weight="bold">2</text>
    <text x="950" y="524" fill="#007AFF" font-size="11">FingerprintJS active</text>
  </g>

  <text x="640" y="700" fill="#ffffff" fill-opacity="0.35" font-size="12" text-anchor="middle">React Dashboard — Schedule Management</text>
</svg>
